<svg xmlns="http://www.w3.org/2000/svg" width="1920" height="1080"><path d="M-187,-258L-40,-247L389,-243Z" fill="#edf8fb" stroke="#edf8fb" stroke-width="1.51"/><path d="M764,1328L331,1332L1008,1331Z" fill="#4d8d6c" stroke="#4d8d6c" stroke-width="1.51"/><path d="M389,-243L894,-244L1360,-262Z" fill="#b6e2d4" stroke="#b6e2d4" stroke-width="1.51"/><path d="M-187,-258L389,-243L1360,-262Z" fill="#d3eee9" stroke="#d3eee9" stroke-width="1.51"/><path d="M1324,1287L1008,1331L1448,1290Z" fill="#237d49" stroke="#237d49" stroke-width="1.51"/><path d="M1448,1290L1008,1331L1655,1306Z" fill="#1d7741" stroke="#1d7741" stroke-width="1.51"/><path d="M1655,1306L1008,1331L1976,1312Z" fill="#126c32" stroke="#126c32" stroke-width="1.51"/><path d="M1817,1279L1655,1306L1976,1312Z" fill="#026128" stroke="#026128" stroke-width="1.51"/><path d="M1950,682L1940,869L2068,664Z" fill="#25844d" stroke="#25844d" stroke-width="1.51"/><path d="M1360,-262L1478,-247L2100,-264Z" fill="#8fbe99" stroke="#8fbe99" stroke-width="1.51"/><path d="M1729,-206L1979,-215L2100,-264Z" fill="#83ac8c" stroke="#83ac8c" stroke-width="1.51"/><path d="M1478,-247L1729,-206L2100,-264Z" fill="#8ab793" stroke="#8ab793" stroke-width="1.51"/><path d="M1979,-215L2097,-76L2100,-264Z" fill="#7ca287" stroke="#7ca287" stroke-width="1.51"/><path d="M2097,-76L1966,-51L2112,132Z" fill="#739f83" stroke="#739f83" stroke-width="1.51"/><path d="M1966,-51L1936,131L2112,132Z" fill="#71a182" stroke="#71a182" stroke-width="1.51"/><path d="M2033,239L2051,385L2112,132Z" fill="#5d9675" stroke="#5d9675" stroke-width="1.51"/><path d="M2100,-264L2097,-76L2112,132Z" fill="#769d84" stroke="#769d84" stroke-width="1.51"/><path d="M2051,385L1889,554L2118,583Z" fill="#3e8d64" stroke="#3e8d64" stroke-width="1.51"/><path d="M2112,132L2051,385L2118,583Z" fill="#4d8e6d" stroke="#4d8e6d" stroke-width="1.51"/><path d="M2080,1098L2039,1278L2130,1012Z" fill="#025f27" stroke="#025f27" stroke-width="1.51"/><path d="M2112,132L2118,583L2137,885Z" fill="#37845e" stroke="#37845e" stroke-width="1.51"/><path d="M2068,664L1940,869L2137,885Z" fill="#1f7a43" stroke="#1f7a43" stroke-width="1.51"/><path d="M1929,948L2130,1012L2137,885Z" fill="#126e32" stroke="#126e32" stroke-width="1.51"/><path d="M1940,869L1929,948L2137,885Z" fill="#17763a" stroke="#17763a" stroke-width="1.51"/><path d="M2118,583L2068,664L2137,885Z" fill="#267c4c" stroke="#267c4c" stroke-width="1.51"/><path d="M1929,948L2080,1098L2130,1012Z" fill="#0c6a2f" stroke="#0c6a2f" stroke-width="1.51"/><path d="M1889,554L2068,664L2118,583Z" fill="#33875a" stroke="#33875a" stroke-width="1.51"/><path d="M1979,-215L1966,-51L2097,-76Z" fill="#7ba588" stroke="#7ba588" stroke-width="1.51"/><path d="M1936,131L2033,239L2112,132Z" fill="#689d7c" stroke="#689d7c" stroke-width="1.51"/><path d="M1889,554L1950,682L2068,664Z" fill="#318a59" stroke="#318a59" stroke-width="1.51"/><path d="M1879,1132L2039,1278L2080,1098Z" fill="#006227" stroke="#006227" stroke-width="1.51"/><path d="M1891,378L1889,554L2051,385Z" fill="#49966c" stroke="#49966c" stroke-width="1.51"/><path d="M1929,948L1879,1132L2080,1098Z" fill="#096d2f" stroke="#096d2f" stroke-width="1.51"/><path d="M1905,240L1891,378L2033,239Z" fill="#5c9d78" stroke="#5c9d78" stroke-width="1.51"/><path d="M2033,239L1891,378L2051,385Z" fill="#549873" stroke="#549873" stroke-width="1.51"/><path d="M1879,1132L1976,1312L2039,1278Z" fill="#005d25" stroke="#005d25" stroke-width="1.51"/><path d="M1936,131L1905,240L2033,239Z" fill="#66a07c" stroke="#66a07c" stroke-width="1.51"/><path d="M1825,1099L1879,1132L1929,948Z" fill="#0a7231" stroke="#0a7231" stroke-width="1.51"/><path d="M1787,-34L1775,92L1936,131Z" fill="#78ae89" stroke="#78ae89" stroke-width="1.51"/><path d="M1834,801L1940,869L1950,682Z" fill="#23864a" stroke="#23864a" stroke-width="1.51"/><path d="M1787,-34L1936,131L1966,-51Z" fill="#78ab88" stroke="#78ab88" stroke-width="1.51"/><path d="M1879,1132L1817,1279L1976,1312Z" fill="#006227" stroke="#006227" stroke-width="1.51"/><path d="M1787,-34L1966,-51L1979,-215Z" fill="#7ead8c" stroke="#7ead8c" stroke-width="1.51"/><path d="M1729,-206L1787,-34L1979,-215Z" fill="#83b38f" stroke="#83b38f" stroke-width="1.51"/><path d="M1781,960L1825,1099L1929,948Z" fill="#117936" stroke="#117936" stroke-width="1.51"/><path d="M1889,554L1763,634L1950,682Z" fill="#34925d" stroke="#34925d" stroke-width="1.51"/><path d="M1763,634L1834,801L1950,682Z" fill="#2c8f55" stroke="#2c8f55" stroke-width="1.51"/><path d="M1765,426L1889,554L1891,378Z" fill="#499c6e" stroke="#499c6e" stroke-width="1.51"/><path d="M1775,92L1905,240L1936,131Z" fill="#6ea983" stroke="#6ea983" stroke-width="1.51"/><path d="M1781,960L1929,948L1940,869Z" fill="#167c3b" stroke="#167c3b" stroke-width="1.51"/><path d="M1834,801L1781,960L1940,869Z" fill="#1c8342" stroke="#1c8342" stroke-width="1.51"/><path d="M1775,92L1763,237L1905,240Z" fill="#6caa83" stroke="#6caa83" stroke-width="1.51"/><path d="M1767,577L1763,634L1889,554Z" fill="#3a9763" stroke="#3a9763" stroke-width="1.51"/><path d="M1765,426L1767,577L1889,554Z" fill="#429a6a" stroke="#429a6a" stroke-width="1.51"/><path d="M1763,237L1891,378L1905,240Z" fill="#5fa47b" stroke="#5fa47b" stroke-width="1.51"/><path d="M1825,1099L1817,1279L1879,1132Z" fill="#016d2c" stroke="#016d2c" stroke-width="1.51"/><path d="M1763,237L1765,426L1891,378Z" fill="#59a479" stroke="#59a479" stroke-width="1.51"/><path d="M1478,-247L1599,-184L1729,-206Z" fill="#8fc09b" stroke="#8fc09b" stroke-width="1.51"/><path d="M1597,1176L1655,1306L1817,1279Z" fill="#0a6c2f" stroke="#0a6c2f" stroke-width="1.51"/><path d="M1781,960L1631,1013L1825,1099Z" fill="#157c38" stroke="#157c38" stroke-width="1.51"/><path d="M1597,1176L1817,1279L1825,1099Z" fill="#08702f" stroke="#08702f" stroke-width="1.51"/><path d="M1763,634L1682,661L1834,801Z" fill="#30955a" stroke="#30955a" stroke-width="1.51"/><path d="M1579,829L1781,960L1834,801Z" fill="#238a48" stroke="#238a48" stroke-width="1.51"/><path d="M1682,661L1579,829L1834,801Z" fill="#2c9455" stroke="#2c9455" stroke-width="1.51"/><path d="M1729,-206L1654,-85L1787,-34Z" fill="#86b894" stroke="#86b894" stroke-width="1.51"/><path d="M1631,1013L1597,1176L1825,1099Z" fill="#127a37" stroke="#127a37" stroke-width="1.51"/><path d="M1627,121L1638,236L1763,237Z" fill="#71b189" stroke="#71b189" stroke-width="1.51"/><path d="M1638,236L1590,340L1763,237Z" fill="#68ae85" stroke="#68ae85" stroke-width="1.51"/><path d="M1763,237L1590,340L1765,426Z" fill="#5ea97f" stroke="#5ea97f" stroke-width="1.51"/><path d="M1765,426L1610,555L1767,577Z" fill="#459f6f" stroke="#459f6f" stroke-width="1.51"/><path d="M1627,121L1763,237L1775,92Z" fill="#75b28a" stroke="#75b28a" stroke-width="1.51"/><path d="M1654,-85L1627,121L1775,92Z" fill="#7eb691" stroke="#7eb691" stroke-width="1.51"/><path d="M1579,829L1631,1013L1781,960Z" fill="#208742" stroke="#208742" stroke-width="1.51"/><path d="M1654,-85L1775,92L1787,-34Z" fill="#80b591" stroke="#80b591" stroke-width="1.51"/><path d="M1682,661L1763,634L1767,577Z" fill="#399963" stroke="#399963" stroke-width="1.51"/><path d="M1610,555L1682,661L1767,577Z" fill="#3d9d68" stroke="#3d9d68" stroke-width="1.51"/><path d="M1590,340L1610,555L1765,426Z" fill="#52a678" stroke="#52a678" stroke-width="1.51"/><path d="M894,-244L1200,-217L1360,-262Z" fill="#a5d8c0" stroke="#a5d8c0" stroke-width="1.51"/><path d="M1599,-184L1654,-85L1729,-206Z" fill="#8abc98" stroke="#8abc98" stroke-width="1.51"/><path d="M1590,340L1529,519L1610,555Z" fill="#51a979" stroke="#51a979" stroke-width="1.51"/><path d="M1579,829L1517,971L1631,1013Z" fill="#248b46" stroke="#248b46" stroke-width="1.51"/><path d="M1531,-44L1627,121L1654,-85Z" fill="#85bc96" stroke="#85bc96" stroke-width="1.51"/><path d="M1610,555L1533,697L1682,661Z" fill="#3d9f67" stroke="#3d9f67" stroke-width="1.51"/><path d="M1533,697L1579,829L1682,661Z" fill="#339b5e" stroke="#339b5e" stroke-width="1.51"/><path d="M1484,399L1529,519L1590,340Z" fill="#5aae80" stroke="#5aae80" stroke-width="1.51"/><path d="M1531,-44L1462,49L1627,121Z" fill="#84be98" stroke="#84be98" stroke-width="1.51"/><path d="M1599,-184L1531,-44L1654,-85Z" fill="#8abe9a" stroke="#8abe9a" stroke-width="1.51"/><path d="M1597,1176L1448,1290L1655,1306Z" fill="#127134" stroke="#127134" stroke-width="1.51"/><path d="M1517,971L1597,1176L1631,1013Z" fill="#1b823e" stroke="#1b823e" stroke-width="1.51"/><path d="M1627,121L1457,222L1638,236Z" fill="#75b88e" stroke="#75b88e" stroke-width="1.51"/><path d="M1457,222L1590,340L1638,236Z" fill="#6cb58a" stroke="#6cb58a" stroke-width="1.51"/><path d="M1517,971L1429,1178L1597,1176Z" fill="#1b823f" stroke="#1b823f" stroke-width="1.51"/><path d="M1483,863L1517,971L1579,829Z" fill="#2a924f" stroke="#2a924f" stroke-width="1.51"/><path d="M1529,519L1533,697L1610,555Z" fill="#43a46e" stroke="#43a46e" stroke-width="1.51"/><path d="M1462,49L1457,222L1627,121Z" fill="#7fbe97" stroke="#7fbe97" stroke-width="1.51"/><path d="M1429,1178L1448,1290L1597,1176Z" fill="#187a3b" stroke="#187a3b" stroke-width="1.51"/><path d="M1478,-247L1531,-44L1599,-184Z" fill="#90c39f" stroke="#90c39f" stroke-width="1.51"/><path d="M1533,697L1483,863L1579,829Z" fill="#30995a" stroke="#30995a" stroke-width="1.51"/><path d="M1457,222L1484,399L1590,340Z" fill="#67b58b" stroke="#67b58b" stroke-width="1.51"/><path d="M1303,974L1429,1178L1517,971Z" fill="#258d4b" stroke="#258d4b" stroke-width="1.51"/><path d="M1484,399L1370,430L1529,519Z" fill="#59b184" stroke="#59b184" stroke-width="1.51"/><path d="M1478,-247L1294,-103L1531,-44Z" fill="#93c8a7" stroke="#93c8a7" stroke-width="1.51"/><path d="M1373,826L1483,863L1533,697Z" fill="#349e5f" stroke="#349e5f" stroke-width="1.51"/><path d="M1344,718L1373,826L1533,697Z" fill="#3aa569" stroke="#3aa569" stroke-width="1.51"/><path d="M1529,519L1312,546L1533,697Z" fill="#48aa77" stroke="#48aa77" stroke-width="1.51"/><path d="M1312,546L1344,718L1533,697Z" fill="#44aa75" stroke="#44aa75" stroke-width="1.51"/><path d="M1294,-103L1462,49L1531,-44Z" fill="#8ec7a5" stroke="#8ec7a5" stroke-width="1.51"/><path d="M1370,430L1312,546L1529,519Z" fill="#55b184" stroke="#55b184" stroke-width="1.51"/><path d="M1360,-262L1294,-103L1478,-247Z" fill="#99cdad" stroke="#99cdad" stroke-width="1.51"/><path d="M1483,863L1303,974L1517,971Z" fill="#2c9351" stroke="#2c9351" stroke-width="1.51"/><path d="M1214,1261L1008,1331L1324,1287Z" fill="#298150" stroke="#298150" stroke-width="1.51"/><path d="M1303,974L1292,1145L1429,1178Z" fill="#268d4e" stroke="#268d4e" stroke-width="1.51"/><path d="M1296,243L1370,430L1457,222Z" fill="#70be97" stroke="#70be97" stroke-width="1.51"/><path d="M1329,130L1457,222L1462,49Z" fill="#84c49f" stroke="#84c49f" stroke-width="1.51"/><path d="M1373,826L1303,974L1483,863Z" fill="#319a5a" stroke="#319a5a" stroke-width="1.51"/><path d="M1457,222L1370,430L1484,399Z" fill="#66b78e" stroke="#66b78e" stroke-width="1.51"/><path d="M1429,1178L1324,1287L1448,1290Z" fill="#1d7b41" stroke="#1d7b41" stroke-width="1.51"/><path d="M1294,-103L1329,130L1462,49Z" fill="#8dc9a8" stroke="#8dc9a8" stroke-width="1.51"/><path d="M1329,130L1296,243L1457,222Z" fill="#7ec49f" stroke="#7ec49f" stroke-width="1.51"/><path d="M1294,-103L1223,65L1329,130Z" fill="#91ceaf" stroke="#91ceaf" stroke-width="1.51"/><path d="M1292,1145L1324,1287L1429,1178Z" fill="#218347" stroke="#218347" stroke-width="1.51"/><path d="M-40,-247L245,-227L389,-243Z" fill="#e7f6f6" stroke="#e7f6f6" stroke-width="1.51"/><path d="M1204,590L1236,714L1312,546Z" fill="#4eb585" stroke="#4eb585" stroke-width="1.51"/><path d="M1312,546L1236,714L1344,718Z" fill="#48b07c" stroke="#48b07c" stroke-width="1.51"/><path d="M1200,-217L1294,-103L1360,-262Z" fill="#9cd2b5" stroke="#9cd2b5" stroke-width="1.51"/><path d="M1197,427L1312,546L1370,430Z" fill="#5dba91" stroke="#5dba91" stroke-width="1.51"/><path d="M1296,243L1197,427L1370,430Z" fill="#6ac099" stroke="#6ac099" stroke-width="1.51"/><path d="M1224,880L1303,974L1373,826Z" fill="#359f61" stroke="#359f61" stroke-width="1.51"/><path d="M1344,718L1236,714L1373,826Z" fill="#3eaa70" stroke="#3eaa70" stroke-width="1.51"/><path d="M1236,714L1224,880L1373,826Z" fill="#3ca86d" stroke="#3ca86d" stroke-width="1.51"/><path d="M1164,-12L1223,65L1294,-103Z" fill="#96d1b6" stroke="#96d1b6" stroke-width="1.51"/><path d="M1292,1145L1214,1261L1324,1287Z" fill="#23844b" stroke="#23844b" stroke-width="1.51"/><path d="M1171,978L1292,1145L1303,974Z" fill="#2f9659" stroke="#2f9659" stroke-width="1.51"/><path d="M1180,209L1296,243L1329,130Z" fill="#82caa8" stroke="#82caa8" stroke-width="1.51"/><path d="M1223,65L1180,209L1329,130Z" fill="#8bcdad" stroke="#8bcdad" stroke-width="1.51"/><path d="M1180,209L1197,427L1296,243Z" fill="#77c6a4" stroke="#77c6a4" stroke-width="1.51"/><path d="M1197,427L1204,590L1312,546Z" fill="#59ba90" stroke="#59ba90" stroke-width="1.51"/><path d="M1153,1179L1214,1261L1292,1145Z" fill="#298b51" stroke="#298b51" stroke-width="1.51"/><path d="M1171,978L1153,1179L1292,1145Z" fill="#2e9358" stroke="#2e9358" stroke-width="1.51"/><path d="M1224,880L1171,978L1303,974Z" fill="#369e60" stroke="#369e60" stroke-width="1.51"/><path d="M894,-244L1010,-180L1200,-217Z" fill="#aadcc9" stroke="#aadcc9" stroke-width="1.51"/><path d="M1200,-217L1164,-12L1294,-103Z" fill="#9cd4b9" stroke="#9cd4b9" stroke-width="1.51"/><path d="M1180,209L1024,283L1197,427Z" fill="#7bc9ab" stroke="#7bc9ab" stroke-width="1.51"/><path d="M1024,283L1027,403L1197,427Z" fill="#75c7a9" stroke="#75c7a9" stroke-width="1.51"/><path d="M1010,-180L1164,-12L1200,-217Z" fill="#a2d7c1" stroke="#a2d7c1" stroke-width="1.51"/><path d="M1197,427L1064,505L1204,590Z" fill="#60be98" stroke="#60be98" stroke-width="1.51"/><path d="M1204,590L1045,713L1236,714Z" fill="#4fb586" stroke="#4fb586" stroke-width="1.51"/><path d="M1035,786L1224,880L1236,714Z" fill="#45ad77" stroke="#45ad77" stroke-width="1.51"/><path d="M1045,713L1035,786L1236,714Z" fill="#4cb483" stroke="#4cb483" stroke-width="1.51"/><path d="M1007,77L1180,209L1223,65Z" fill="#92d1b7" stroke="#92d1b7" stroke-width="1.51"/><path d="M1164,-12L1007,77L1223,65Z" fill="#97d4bb" stroke="#97d4bb" stroke-width="1.51"/><path d="M1035,786L1171,978L1224,880Z" fill="#40a66f" stroke="#40a66f" stroke-width="1.51"/><path d="M1010,-180L996,-59L1164,-12Z" fill="#a3d9c6" stroke="#a3d9c6" stroke-width="1.51"/><path d="M1002,1142L1153,1179L1171,978Z" fill="#36965f" stroke="#36965f" stroke-width="1.51"/><path d="M1153,1179L1008,1331L1214,1261Z" fill="#2e8756" stroke="#2e8756" stroke-width="1.51"/><path d="M1035,786L1007,974L1171,978Z" fill="#43a670" stroke="#43a670" stroke-width="1.51"/><path d="M1007,974L1002,1142L1171,978Z" fill="#3d9d67" stroke="#3d9d67" stroke-width="1.51"/><path d="M1064,505L1045,713L1204,590Z" fill="#59ba92" stroke="#59ba92" stroke-width="1.51"/><path d="M1027,403L1064,505L1197,427Z" fill="#6bc3a2" stroke="#6bc3a2" stroke-width="1.51"/><path d="M1007,77L1024,283L1180,209Z" fill="#8dd1b7" stroke="#8dd1b7" stroke-width="1.51"/><path d="M1002,1142L1008,1331L1153,1179Z" fill="#348d5c" stroke="#348d5c" stroke-width="1.51"/><path d="M996,-59L1007,77L1164,-12Z" fill="#9ed7c3" stroke="#9ed7c3" stroke-width="1.51"/><path d="M408,1303L331,1332L764,1328Z" fill="#5f9576" stroke="#5f9576" stroke-width="1.51"/><path d="M389,-243L615,-166L894,-244Z" fill="#c8eae4" stroke="#c8eae4" stroke-width="1.51"/><path d="M1007,77L866,241L1024,283Z" fill="#91d4bf" stroke="#91d4bf" stroke-width="1.51"/><path d="M1024,283L935,349L1027,403Z" fill="#7dccb3" stroke="#7dccb3" stroke-width="1.51"/><path d="M933,812L1007,974L1035,786Z" fill="#4cad7d" stroke="#4cad7d" stroke-width="1.51"/><path d="M907,530L881,662L1045,713Z" fill="#60be9a" stroke="#60be9a" stroke-width="1.51"/><path d="M907,530L1045,713L1064,505Z" fill="#60bf9b" stroke="#60bf9b" stroke-width="1.51"/><path d="M1027,403L907,530L1064,505Z" fill="#6cc4a6" stroke="#6cc4a6" stroke-width="1.51"/><path d="M1002,1142L841,1234L1008,1331Z" fill="#3b8f63" stroke="#3b8f63" stroke-width="1.51"/><path d="M933,812L1035,786L1045,713Z" fill="#50b486" stroke="#50b486" stroke-width="1.51"/><path d="M881,662L933,812L1045,713Z" fill="#56ba8f" stroke="#56ba8f" stroke-width="1.51"/><path d="M615,-166L769,-179L894,-244Z" fill="#bde5dc" stroke="#bde5dc" stroke-width="1.51"/><path d="M880,961L1002,1142L1007,974Z" fill="#44a16f" stroke="#44a16f" stroke-width="1.51"/><path d="M933,812L880,961L1007,974Z" fill="#4caa79" stroke="#4caa79" stroke-width="1.51"/><path d="M996,-59L880,43L1007,77Z" fill="#a2dac9" stroke="#a2dac9" stroke-width="1.51"/><path d="M935,349L907,530L1027,403Z" fill="#75c8ae" stroke="#75c8ae" stroke-width="1.51"/><path d="M875,-22L880,43L996,-59Z" fill="#a7dccd" stroke="#a7dccd" stroke-width="1.51"/><path d="M880,43L866,241L1007,77Z" fill="#9fd9c8" stroke="#9fd9c8" stroke-width="1.51"/><path d="M880,961L838,1163L1002,1142Z" fill="#469e6e" stroke="#469e6e" stroke-width="1.51"/><path d="M866,241L935,349L1024,283Z" fill="#87d0ba" stroke="#87d0ba" stroke-width="1.51"/><path d="M838,1163L841,1234L1002,1142Z" fill="#429769" stroke="#429769" stroke-width="1.51"/><path d="M875,-22L996,-59L1010,-180Z" fill="#a8dcce" stroke="#a8dcce" stroke-width="1.51"/><path d="M894,-244L875,-22L1010,-180Z" fill="#aeded0" stroke="#aeded0" stroke-width="1.51"/><path d="M841,1234L764,1328L1008,1331Z" fill="#408b64" stroke="#408b64" stroke-width="1.51"/><path d="M543,1273L408,1303L764,1328Z" fill="#5a9474" stroke="#5a9474" stroke-width="1.51"/><path d="M769,-179L875,-22L894,-244Z" fill="#b4e1d5" stroke="#b4e1d5" stroke-width="1.51"/><path d="M764,849L880,961L933,812Z" fill="#56b083" stroke="#56b083" stroke-width="1.51"/><path d="M881,662L739,732L933,812Z" fill="#60bd94" stroke="#60bd94" stroke-width="1.51"/><path d="M739,732L764,849L933,812Z" fill="#5fb98f" stroke="#5fb98f" stroke-width="1.51"/><path d="M866,241L681,341L935,349Z" fill="#8ed3c0" stroke="#8ed3c0" stroke-width="1.51"/><path d="M681,341L763,489L935,349Z" fill="#87d0bb" stroke="#87d0bb" stroke-width="1.51"/><path d="M763,489L907,530L935,349Z" fill="#79cab1" stroke="#79cab1" stroke-width="1.51"/><path d="M743,217L866,241L880,43Z" fill="#a0daca" stroke="#a0daca" stroke-width="1.51"/><path d="M685,108L743,217L880,43Z" fill="#abded0" stroke="#abded0" stroke-width="1.51"/><path d="M692,1020L838,1163L880,961Z" fill="#51a576" stroke="#51a576" stroke-width="1.51"/><path d="M763,489L881,662L907,530Z" fill="#6ec5a8" stroke="#6ec5a8" stroke-width="1.51"/><path d="M743,217L681,341L866,241Z" fill="#99d8c7" stroke="#99d8c7" stroke-width="1.51"/><path d="M116,1290L-183,1327L331,1332Z" fill="#769d84" stroke="#769d84" stroke-width="1.51"/><path d="M692,1020L702,1150L838,1163Z" fill="#53a276" stroke="#53a276" stroke-width="1.51"/><path d="M769,-179L682,-112L875,-22Z" fill="#b8e3da" stroke="#b8e3da" stroke-width="1.51"/><path d="M875,-22L685,108L880,43Z" fill="#acdfd2" stroke="#acdfd2" stroke-width="1.51"/><path d="M763,489L739,732L881,662Z" fill="#6ec4a4" stroke="#6ec4a4" stroke-width="1.51"/><path d="M764,849L692,1020L880,961Z" fill="#5aae7f" stroke="#5aae7f" stroke-width="1.51"/><path d="M682,-112L685,108L875,-22Z" fill="#b5e2d8" stroke="#b5e2d8" stroke-width="1.51"/><path d="M838,1163L702,1150L841,1234Z" fill="#4b9a6f" stroke="#4b9a6f" stroke-width="1.51"/><path d="M702,1150L764,1328L841,1234Z" fill="#4b956d" stroke="#4b956d" stroke-width="1.51"/><path d="M603,1153L543,1273L702,1150Z" fill="#5b9f78" stroke="#5b9f78" stroke-width="1.51"/><path d="M580,577L626,739L739,732Z" fill="#76c7a7" stroke="#76c7a7" stroke-width="1.51"/><path d="M580,577L739,732L763,489Z" fill="#78c9ae" stroke="#78c9ae" stroke-width="1.51"/><path d="M611,997L692,1020L764,849Z" fill="#61b084" stroke="#61b084" stroke-width="1.51"/><path d="M739,732L626,739L764,849Z" fill="#6abf98" stroke="#6abf98" stroke-width="1.51"/><path d="M702,1150L543,1273L764,1328Z" fill="#539772" stroke="#539772" stroke-width="1.51"/><path d="M615,-166L682,-112L769,-179Z" fill="#c0e7df" stroke="#c0e7df" stroke-width="1.51"/><path d="M681,341L533,428L763,489Z" fill="#8fd4c1" stroke="#8fd4c1" stroke-width="1.51"/><path d="M626,739L539,826L764,849Z" fill="#6ebf99" stroke="#6ebf99" stroke-width="1.51"/><path d="M539,826L611,997L764,849Z" fill="#69b78e" stroke="#69b78e" stroke-width="1.51"/><path d="M533,428L580,577L763,489Z" fill="#89d1bb" stroke="#89d1bb" stroke-width="1.51"/><path d="M593,-109L537,40L682,-112Z" fill="#c3e8e2" stroke="#c3e8e2" stroke-width="1.51"/><path d="M682,-112L537,40L685,108Z" fill="#bce6de" stroke="#bce6de" stroke-width="1.51"/><path d="M685,108L533,193L743,217Z" fill="#aee0d5" stroke="#aee0d5" stroke-width="1.51"/><path d="M533,193L681,341L743,217Z" fill="#a4ddcf" stroke="#a4ddcf" stroke-width="1.51"/><path d="M611,997L603,1153L692,1020Z" fill="#60aa7f" stroke="#60aa7f" stroke-width="1.51"/><path d="M692,1020L603,1153L702,1150Z" fill="#5aa57b" stroke="#5aa57b" stroke-width="1.51"/><path d="M533,193L475,336L681,341Z" fill="#a7ddd0" stroke="#a7ddd0" stroke-width="1.51"/><path d="M537,40L533,193L685,108Z" fill="#bae5db" stroke="#bae5db" stroke-width="1.51"/><path d="M615,-166L593,-109L682,-112Z" fill="#c4e9e3" stroke="#c4e9e3" stroke-width="1.51"/><path d="M475,336L533,428L681,341Z" fill="#9edaca" stroke="#9edaca" stroke-width="1.51"/><path d="M539,826L411,887L611,997Z" fill="#73ba92" stroke="#73ba92" stroke-width="1.51"/><path d="M411,887L407,983L611,997Z" fill="#74b78e" stroke="#74b78e" stroke-width="1.51"/><path d="M491,1176L603,1153L611,997Z" fill="#63a87f" stroke="#63a87f" stroke-width="1.51"/><path d="M580,577L482,738L626,739Z" fill="#7ecaaa" stroke="#7ecaaa" stroke-width="1.51"/><path d="M482,738L539,826L626,739Z" fill="#79c5a2" stroke="#79c5a2" stroke-width="1.51"/><path d="M457,-22L537,40L593,-109Z" fill="#c8eae5" stroke="#c8eae5" stroke-width="1.51"/><path d="M491,1176L543,1273L603,1153Z" fill="#61a07a" stroke="#61a07a" stroke-width="1.51"/><path d="M407,983L491,1176L611,997Z" fill="#6caf86" stroke="#6caf86" stroke-width="1.51"/><path d="M389,-243L593,-109L615,-166Z" fill="#ceede8" stroke="#ceede8" stroke-width="1.51"/><path d="M533,428L415,585L580,577Z" fill="#8fd3be" stroke="#8fd3be" stroke-width="1.51"/><path d="M415,585L482,738L580,577Z" fill="#88ceb3" stroke="#88ceb3" stroke-width="1.51"/><path d="M389,-243L457,-22L593,-109Z" fill="#d1eeea" stroke="#d1eeea" stroke-width="1.51"/><path d="M448,220L475,336L533,193Z" fill="#b3e2d7" stroke="#b3e2d7" stroke-width="1.51"/><path d="M412,112L533,193L537,40Z" fill="#c2e8e0" stroke="#c2e8e0" stroke-width="1.51"/><path d="M412,112L448,220L533,193Z" fill="#bee6dd" stroke="#bee6dd" stroke-width="1.51"/><path d="M491,1176L408,1303L543,1273Z" fill="#649d7a" stroke="#649d7a" stroke-width="1.51"/><path d="M482,738L411,887L539,826Z" fill="#7cc39f" stroke="#7cc39f" stroke-width="1.51"/><path d="M457,-22L412,112L537,40Z" fill="#c8ebe4" stroke="#c8ebe4" stroke-width="1.51"/><path d="M475,336L415,585L533,428Z" fill="#9cd8c7" stroke="#9cd8c7" stroke-width="1.51"/><path d="M389,-243L259,-68L457,-22Z" fill="#daf1ef" stroke="#daf1ef" stroke-width="1.51"/><path d="M268,378L415,585L475,336Z" fill="#a5dccd" stroke="#a5dccd" stroke-width="1.51"/><path d="M307,820L411,887L482,738Z" fill="#83c6a2" stroke="#83c6a2" stroke-width="1.51"/><path d="M251,1089L408,1303L491,1176Z" fill="#6fa782" stroke="#6fa782" stroke-width="1.51"/><path d="M407,983L251,1089L491,1176Z" fill="#75b089" stroke="#75b089" stroke-width="1.51"/><path d="M448,220L304,272L475,336Z" fill="#b6e4d9" stroke="#b6e4d9" stroke-width="1.51"/><path d="M415,585L242,646L482,738Z" fill="#90d1b6" stroke="#90d1b6" stroke-width="1.51"/><path d="M242,646L307,820L482,738Z" fill="#8dceaf" stroke="#8dceaf" stroke-width="1.51"/><path d="M268,378L256,561L415,585Z" fill="#a1d9c9" stroke="#a1d9c9" stroke-width="1.51"/><path d="M304,272L268,378L475,336Z" fill="#b4e2d8" stroke="#b4e2d8" stroke-width="1.51"/><path d="M251,1089L331,1332L408,1303Z" fill="#70a281" stroke="#70a281" stroke-width="1.51"/><path d="M259,-68L412,112L457,-22Z" fill="#d2eeea" stroke="#d2eeea" stroke-width="1.51"/><path d="M412,112L304,272L448,220Z" fill="#c1e8df" stroke="#c1e8df" stroke-width="1.51"/><path d="M245,-227L259,-68L389,-243Z" fill="#e0f3f2" stroke="#e0f3f2" stroke-width="1.51"/><path d="M273,995L251,1089L407,983Z" fill="#7cb78f" stroke="#7cb78f" stroke-width="1.51"/><path d="M273,995L407,983L411,887Z" fill="#7dbb93" stroke="#7dbb93" stroke-width="1.51"/><path d="M239,113L304,272L412,112Z" fill="#c9ebe5" stroke="#c9ebe5" stroke-width="1.51"/><path d="M259,-68L239,113L412,112Z" fill="#d3efeb" stroke="#d3efeb" stroke-width="1.51"/><path d="M256,561L242,646L415,585Z" fill="#99d5c0" stroke="#99d5c0" stroke-width="1.51"/><path d="M307,820L273,995L411,887Z" fill="#82c09a" stroke="#82c09a" stroke-width="1.51"/><path d="M245,-227L180,-158L259,-68Z" fill="#e1f4f4" stroke="#e1f4f4" stroke-width="1.51"/><path d="M119,886L273,995L307,820Z" fill="#87c29d" stroke="#87c29d" stroke-width="1.51"/><path d="M251,1089L116,1290L331,1332Z" fill="#74a584" stroke="#74a584" stroke-width="1.51"/><path d="M161,634L119,886L242,646Z" fill="#95d1b5" stroke="#95d1b5" stroke-width="1.51"/><path d="M82,1172L116,1290L251,1089Z" fill="#7aac8a" stroke="#7aac8a" stroke-width="1.51"/><path d="M141,-19L239,113L259,-68Z" fill="#d9f1f0" stroke="#d9f1f0" stroke-width="1.51"/><path d="M124,243L268,378L304,272Z" fill="#bde6de" stroke="#bde6de" stroke-width="1.51"/><path d="M239,113L124,243L304,272Z" fill="#c8eae4" stroke="#c8eae4" stroke-width="1.51"/><path d="M242,646L119,886L307,820Z" fill="#8eccac" stroke="#8eccac" stroke-width="1.51"/><path d="M124,243L95,377L268,378Z" fill="#bbe5dd" stroke="#bbe5dd" stroke-width="1.51"/><path d="M105,558L256,561L268,378Z" fill="#a7dccd" stroke="#a7dccd" stroke-width="1.51"/><path d="M95,377L105,558L268,378Z" fill="#b0e0d4" stroke="#b0e0d4" stroke-width="1.51"/><path d="M123,1003L251,1089L273,995Z" fill="#80b892" stroke="#80b892" stroke-width="1.51"/><path d="M119,886L123,1003L273,995Z" fill="#86be98" stroke="#86be98" stroke-width="1.51"/><path d="M141,-19L95,86L239,113Z" fill="#d9f1ef" stroke="#d9f1ef" stroke-width="1.51"/><path d="M-40,-247L180,-158L245,-227Z" fill="#e8f6f8" stroke="#e8f6f8" stroke-width="1.51"/><path d="M161,634L242,646L256,561Z" fill="#9cd6c0" stroke="#9cd6c0" stroke-width="1.51"/><path d="M180,-158L141,-19L259,-68Z" fill="#e0f3f5" stroke="#e0f3f5" stroke-width="1.51"/><path d="M105,558L161,634L256,561Z" fill="#a0d8c5" stroke="#a0d8c5" stroke-width="1.51"/><path d="M32,847L119,886L161,634Z" fill="#93ceaf" stroke="#93ceaf" stroke-width="1.51"/><path d="M123,1003L82,1172L251,1089Z" fill="#7fb490" stroke="#7fb490" stroke-width="1.51"/><path d="M95,86L124,243L239,113Z" fill="#d2eeeb" stroke="#d2eeeb" stroke-width="1.51"/><path d="M95,377L20,526L105,558Z" fill="#aedfd2" stroke="#aedfd2" stroke-width="1.51"/><path d="M14,1244L-183,1327L116,1290Z" fill="#7ba287" stroke="#7ba287" stroke-width="1.51"/><path d="M-67,660L32,847L161,634Z" fill="#9bd3b9" stroke="#9bd3b9" stroke-width="1.51"/><path d="M-31,-24L141,-19L180,-158Z" fill="#e3f4f7" stroke="#e3f4f7" stroke-width="1.51"/><path d="M-40,-247L-31,-24L180,-158Z" fill="#e9f7f9" stroke="#e9f7f9" stroke-width="1.51"/><path d="M105,558L-67,660L161,634Z" fill="#a2d8c5" stroke="#a2d8c5" stroke-width="1.51"/><path d="M82,1172L14,1244L116,1290Z" fill="#7ba789" stroke="#7ba789" stroke-width="1.51"/><path d="M-37,1007L82,1172L123,1003Z" fill="#85b794" stroke="#85b794" stroke-width="1.51"/><path d="M-5,277L95,377L124,243Z" fill="#c3e8e3" stroke="#c3e8e3" stroke-width="1.51"/><path d="M95,86L-5,277L124,243Z" fill="#cfede9" stroke="#cfede9" stroke-width="1.51"/><path d="M37,65L95,86L141,-19Z" fill="#dcf2f2" stroke="#dcf2f2" stroke-width="1.51"/><path d="M-31,-24L37,65L141,-19Z" fill="#e1f3f5" stroke="#e1f3f5" stroke-width="1.51"/><path d="M37,65L-5,277L95,86Z" fill="#d7f0ee" stroke="#d7f0ee" stroke-width="1.51"/><path d="M20,526L-67,660L105,558Z" fill="#a6daca" stroke="#a6daca" stroke-width="1.51"/><path d="M32,847L-37,1007L119,886Z" fill="#8ec4a1" stroke="#8ec4a1" stroke-width="1.51"/><path d="M119,886L-37,1007L123,1003Z" fill="#8abf9a" stroke="#8abf9a" stroke-width="1.51"/><path d="M-37,1007L-54,1173L82,1172Z" fill="#84b491" stroke="#84b491" stroke-width="1.51"/><path d="M-56,359L20,526L95,377Z" fill="#b7e3d9" stroke="#b7e3d9" stroke-width="1.51"/><path d="M-5,277L-56,359L95,377Z" fill="#c1e7e1" stroke="#c1e7e1" stroke-width="1.51"/><path d="M-54,1173L14,1244L82,1172Z" fill="#7fac8c" stroke="#7fac8c" stroke-width="1.51"/><path d="M-40,-247L-147,-80L-31,-24Z" fill="#ebf7fb" stroke="#ebf7fb" stroke-width="1.51"/><path d="M-131,809L-37,1007L32,847Z" fill="#92c7a4" stroke="#92c7a4" stroke-width="1.51"/><path d="M-67,660L-131,809L32,847Z" fill="#9ad1b4" stroke="#9ad1b4" stroke-width="1.51"/><path d="M-212,138L-5,277L37,65Z" fill="#d8f1ee" stroke="#d8f1ee" stroke-width="1.51"/><path d="M-31,-24L-212,138L37,65Z" fill="#e1f4f3" stroke="#e1f4f3" stroke-width="1.51"/><path d="M-56,359L-150,555L20,526Z" fill="#b3e0d4" stroke="#b3e0d4" stroke-width="1.51"/><path d="M-120,1024L-54,1173L-37,1007Z" fill="#88b895" stroke="#88b895" stroke-width="1.51"/><path d="M-150,555L-67,660L20,526Z" fill="#a9dbca" stroke="#a9dbca" stroke-width="1.51"/><path d="M-212,138L-214,267L-5,277Z" fill="#d3eeea" stroke="#d3eeea" stroke-width="1.51"/><path d="M-54,1173L-183,1327L14,1244Z" fill="#7ea78a" stroke="#7ea78a" stroke-width="1.51"/><path d="M-131,809L-120,1024L-37,1007Z" fill="#90c29d" stroke="#90c29d" stroke-width="1.51"/><path d="M-214,267L-56,359L-5,277Z" fill="#c8eae4" stroke="#c8eae4" stroke-width="1.51"/><path d="M-171,736L-131,809L-67,660Z" fill="#9fd5b8" stroke="#9fd5b8" stroke-width="1.51"/><path d="M-214,267L-188,341L-56,359Z" fill="#c8eae3" stroke="#c8eae3" stroke-width="1.51"/><path d="M-188,341L-150,555L-56,359Z" fill="#bce4db" stroke="#bce4db" stroke-width="1.51"/><path d="M-195,1190L-183,1327L-54,1173Z" fill="#81aa8b" stroke="#81aa8b" stroke-width="1.51"/><path d="M-187,-258L-147,-80L-40,-247Z" fill="#f0f9fb" stroke="#f0f9fb" stroke-width="1.51"/><path d="M-147,-80L-212,138L-31,-24Z" fill="#e5f5f6" stroke="#e5f5f6" stroke-width="1.51"/><path d="M-120,1024L-195,1190L-54,1173Z" fill="#86b491" stroke="#86b491" stroke-width="1.51"/><path d="M-150,555L-171,736L-67,660Z" fill="#a5d8c2" stroke="#a5d8c2" stroke-width="1.51"/><path d="M-131,809L-171,736L-120,1024Z" fill="#97cba9" stroke="#97cba9" stroke-width="1.51"/><path d="M-171,736L-195,1190L-120,1024Z" fill="#90c09b" stroke="#90c09b" stroke-width="1.51"/><path d="M-187,-258L-212,138L-147,-80Z" fill="#ecf7fa" stroke="#ecf7fa" stroke-width="1.51"/><path d="M-188,341L-171,736L-150,555Z" fill="#afdecf" stroke="#afdecf" stroke-width="1.51"/><path d="M-188,341L-214,267L-171,736Z" fill="#bae4d7" stroke="#bae4d7" stroke-width="1.51"/><path d="M-214,267L-195,1190L-171,736Z" fill="#a1d6b9" stroke="#a1d6b9" stroke-width="1.51"/></svg>